<?xml version="1.0" encoding="UTF-8"?>
<!DOCTYPE svg PUBLIC "-//W3C//DTD SVG 1.1//EN" "http://www.w3.org/Graphics/SVG/1.1/DTD/svg11.dtd">
<!-- Creator: CorelDRAW X6 -->
<svg xmlns="http://www.w3.org/2000/svg" xml:space="preserve" width="35.367mm" height="38.544mm" version="1.1" shape-rendering="geometricPrecision" text-rendering="geometricPrecision" image-rendering="optimizeQuality" fill-rule="evenodd" clip-rule="evenodd"
viewBox="0 0 3537 3854"
 xmlns:xlink="http://www.w3.org/1999/xlink">
 <g id="Capa_x0020_1">
  <metadata id="CorelCorpID_0Corel-Layer"/>
  <g id="_271351208">
   <path fill="black" d="M2928 2170c-13,155 -78,355 -142,479 -87,169 -152,238 -262,345 -408,399 -1375,405 -1803,-36 -163,-168 -252,-353 -320,-592 -24,-86 -33,-215 -71,-232 -10,9 -8,-2 -14,27 -9,101 61,356 96,447 90,240 144,265 190,365 -332,85 -932,315 -376,610 627,332 1792,334 2479,147 188,-51 372,-118 507,-213 278,-195 -4,-397 -96,-356 -17,77 102,123 -37,250 -59,54 -143,95 -228,127 -566,211 -1284,212 -1874,131 -160,-30 -298,-57 -443,-108 -379,-134 -504,-303 -59,-474 82,-32 150,-45 227,3 32,19 136,97 153,121 -90,49 -234,90 -70,177 84,45 214,77 316,90l82 13c-23,-21 -68,-31 -97,-39 -55,-16 -248,-71 -239,-128 58,-99 182,-18 247,8 85,33 165,58 262,77 194,38 423,37 619,-1 583,-112 897,-517 999,-1029 65,-326 -11,-472 243,-434 209,31 260,234 151,412 -92,150 -307,269 -341,336 72,-14 248,-153 296,-191 68,-55 165,-163 198,-287 41,-150 -7,-286 -101,-350 -114,-78 -249,-65 -395,-33l-14 -60c-112,-7 -31,167 -83,400z"/>
   <path fill="black" d="M710 1697c25,40 -36,-7 14,8 31,9 223,-31 261,-35 332,-41 518,-33 837,-15 73,4 56,4 65,22 -35,17 -306,8 -373,11 -221,11 -457,39 -668,97 -89,25 -227,52 -250,135 13,217 1928,332 2199,-38 71,-235 -808,-299 -954,-305 -301,-12 -587,3 -880,61 -57,11 -215,60 -250,61z"/>
   <path fill="black" d="M1359 595c26,113 230,296 294,366 161,175 32,351 -203,238 53,103 216,137 311,95 47,-20 55,-43 83,-62 113,-229 -46,-339 -189,-455 -46,-37 -89,-70 -123,-111 -126,-147 -169,-351 -52,-538 48,-77 89,-90 112,-128 -176,53 -333,359 -233,595z"/>
   <path fill="black" d="M2018 1146c-3,8 -6,10 -7,22 -3,21 -3,10 2,21 93,-129 63,-271 -33,-373 -75,-80 -190,-151 -245,-264l-23 -56c-4,137 124,241 179,306 81,97 148,165 128,344z"/>
  </g>
 </g>
</svg>
